<?xml version="1.0" encoding="utf-8"?>
<!-- Generator: Adobe Illustrator 17.0.0, SVG Export Plug-In . SVG Version: 6.00 Build 0)  -->
<!DOCTYPE svg PUBLIC "-//W3C//DTD SVG 1.1//EN" "http://www.w3.org/Graphics/SVG/1.1/DTD/svg11.dtd">
<svg version="1.1" xmlns="http://www.w3.org/2000/svg" xmlns:xlink="http://www.w3.org/1999/xlink" x="0px" y="0px"
	 width="710.32px" height="145.847px" viewBox="0 0 710.32 145.847" enable-background="new 0 0 710.32 145.847"
	 xml:space="preserve">
<g id="Capa_2">
</g>
<g id="Capa_1">
	<g>
		<path fill="#FFFFFF" d="M0,90.17l83.517-43.018v12.419L13.14,94.85v0.36l70.377,35.279v12.419L0,99.89V90.17z"/>
		<path fill="#FFFFFF" d="M137.258,2.939v139.968h-36.397V2.939H137.258z"/>
		<path fill="#FFFFFF" d="M262.401,2.939v139.968h-31.814l-0.043-94.494l-12.666,94.494h-22.564l-13.357-92.333l-0.043,92.333
			h-31.815V2.939h47.095c1.397,8.416,2.837,18.333,4.32,29.756l5.168,35.603l8.365-65.359H262.401z"/>
		<path fill="#FFFFFF" d="M275.242,2.939h36.656c9.912,0,17.535,0.778,22.867,2.334c5.331,1.556,9.337,3.804,12.017,6.743
			s4.496,6.499,5.447,10.677c0.951,4.179,1.426,10.648,1.426,19.409v12.19c0,8.935-0.922,15.447-2.767,19.539
			c-1.845,4.093-5.23,7.233-10.158,9.423c-4.928,2.191-11.369,3.285-19.322,3.285h-9.769v56.368h-36.397V2.939z M311.639,26.887
			v35.619c1.037,0.058,1.93,0.086,2.68,0.086c3.342,0,5.663-0.821,6.959-2.464c1.297-1.643,1.945-5.058,1.945-10.245V38.385
			c0-4.783-0.75-7.896-2.248-9.337C319.476,27.608,316.364,26.887,311.639,26.887z"/>
		<path fill="#FFFFFF" d="M420.853,2.939l20.813,139.968H404.47l-1.954-25.158h-13.019l-2.188,25.158H349.68L368.246,2.939H420.853z
			 M401.562,92.938c-1.843-15.854-3.69-35.449-5.544-58.788c-3.708,26.802-6.037,46.398-6.985,58.788H401.562z"/>
		<path fill="#FFFFFF" d="M531.061,63.889h-36.397V39.562c0-7.073-0.389-11.487-1.167-13.242c-0.778-1.753-2.494-2.631-5.144-2.631
			c-2.998,0-4.9,1.067-5.706,3.199c-0.808,2.133-1.21,6.743-1.21,13.833v65.013c0,6.801,0.402,11.239,1.21,13.313
			c0.806,2.075,2.622,3.112,5.446,3.112c2.708,0,4.481-1.039,5.317-3.119c0.835-2.081,1.254-6.962,1.254-14.647V86.799h36.397v5.455
			c0,14.488-1.024,24.762-3.069,30.822c-2.046,6.061-6.57,11.371-13.573,15.932c-7.003,4.559-15.635,6.839-25.893,6.839
			c-10.664,0-19.452-1.932-26.369-5.792c-6.916-3.861-11.498-9.207-13.746-16.037c-2.248-6.83-3.372-17.103-3.372-30.821V52.305
			c0-10.085,0.346-17.65,1.038-22.694c0.691-5.042,2.751-9.899,6.181-14.567c3.429-4.668,8.184-8.343,14.265-11.023
			C472.604,1.34,479.591,0,487.488,0c10.72,0,19.567,2.072,26.541,6.217c6.973,4.144,11.555,9.311,13.746,15.498
			c2.19,6.187,3.286,15.813,3.286,28.878V63.889z"/>
		<path fill="#FFFFFF" d="M615.657,2.939v28.011h-21.613v111.957h-36.397V30.951H536.12V2.939H615.657z"/>
		<path fill="#FFFFFF" d="M710.32,100.069l-83.517,42.838v-12.419l70.917-35.279v-0.36l-70.917-35.278V47.152L710.32,89.99V100.069z
			"/>
	</g>
</g>
</svg>
